<?xml version="1.0" encoding="UTF-8"?>
<svg version="1.1" xmlns="http://www.w3.org/2000/svg" width="37" height="48">
<path d="M0 0 C14.24137931 0 14.24137931 0 19 3 C21.07837123 6.11755685 21.00686234 7.86732802 20.8125 11.625 C20.02984859 14.87601356 19.6262134 16.05888574 17 18 C18.31061591 22.23429756 19.94356259 26.07407404 22 30 C20.02 30 18.04 30 16 30 C15.72027344 29.28972656 15.44054688 28.57945313 15.15234375 27.84765625 C13.930687 25.04688049 12.73393565 22.51935699 11 20 C7.33957308 18.69857084 7.33957308 18.69857084 4 19 C4 22.63 4 26.26 4 30 C2.68 30 1.36 30 0 30 C0 20.1 0 10.2 0 0 Z M4 4 C4 7.63 4 11.26 4 15 C10.39825263 15.47326369 10.39825263 15.47326369 16 13 C16.66680368 10.04279372 16.66680368 10.04279372 16 7 C13.02723853 4.29748957 11.21225709 4.01043887 7.1875 3.8125 C5.6096875 3.9053125 5.6096875 3.9053125 4 4 Z " fill='#121275' transform="translate(3,9)"/>
<path d="M0 0 C1.65 0.33 3.3 0.66 5 1 C5 2.32 5 3.64 5 5 C3.125 5.625 3.125 5.625 1 6 C0.34 5.34 -0.32 4.68 -1 4 C-0.625 1.875 -0.625 1.875 0 0 Z " fill='#121275' transform="translate(29,34)"/>
</svg>
